<svg xmlns="http://www.w3.org/2000/svg" xmlns:xlink="http://www.w3.org/1999/xlink" width="500" zoomAndPan="magnify" viewBox="0 0 375 374.999991" height="500" preserveAspectRatio="xMidYMid meet" version="1.0"><defs><g/><clipPath id="ecbf51b685"><path d="M 83.050781 83.050781 L 292 83.050781 L 292 292 L 83.050781 292 Z M 83.050781 83.050781 " clip-rule="nonzero"/></clipPath><clipPath id="64cfc77a8e"><path d="M 125.511719 125.511719 L 249.261719 125.511719 L 249.261719 206 L 125.511719 206 Z M 125.511719 125.511719 " clip-rule="nonzero"/></clipPath><clipPath id="a43fc00ae8"><path d="M 140 213 L 239 213 L 239 249.261719 L 140 249.261719 Z M 140 213 " clip-rule="nonzero"/></clipPath><clipPath id="6cb09d2d26"><path d="M 262.632812 187.5 L 271.632812 187.5 L 271.632812 196.5 L 262.632812 196.5 Z M 262.632812 187.5 " clip-rule="nonzero"/></clipPath><clipPath id="0032173e16"><path d="M 103.453125 187.5 L 112.453125 187.5 L 112.453125 196.5 L 103.453125 196.5 Z M 103.453125 187.5 " clip-rule="nonzero"/></clipPath><clipPath id="a9a94b9468"><rect x="0" width="175" y="0" height="72"/></clipPath><clipPath id="4e7f677eb8"><rect x="0" width="179" y="0" height="76"/></clipPath></defs><rect x="-37.5" width="450" fill="#ffffff" y="-37.499999" height="449.999989" fill-opacity="1"/><rect x="-37.5" width="450" fill="#ffffff" y="-37.499999" height="449.999989" fill-opacity="1"/><g clip-path="url(#ecbf51b685)"><path fill="#16a637" d="M 187.5 291.949219 C 129.792969 291.949219 83.050781 244.882812 83.050781 187.5 C 83.050781 130.117188 129.792969 83.050781 187.5 83.050781 C 245.203125 83.050781 291.949219 129.792969 291.949219 187.5 C 291.949219 245.203125 244.882812 291.949219 187.5 291.949219 Z M 187.5 89.496094 C 133.339844 89.496094 89.496094 133.339844 89.496094 187.5 C 89.496094 241.65625 133.339844 285.5 187.5 285.5 C 241.65625 285.5 285.5 241.65625 285.5 187.5 C 285.5 133.339844 241.335938 89.496094 187.5 89.496094 Z M 187.5 89.496094 " fill-opacity="1" fill-rule="nonzero"/></g><g clip-path="url(#64cfc77a8e)"><path fill="#16a637" d="M 165.457031 205.617188 C 170.691406 200.15625 177.757812 196.867188 185.25 196.347656 C 185.25 196.324219 185.25 196.308594 185.25 196.285156 C 185.285156 194.097656 185.289062 192.457031 185.375 191.699219 C 186.957031 177.546875 190.8125 166.628906 207.910156 155.804688 C 200.011719 157.792969 193.132812 163.683594 187.269531 173.464844 C 189.078125 149.445312 208.886719 156.289062 222.707031 144.945312 C 219.925781 190.84375 192.703125 159.375 188.140625 196.269531 C 188.140625 196.273438 188.140625 196.277344 188.140625 196.28125 C 196.117188 196.488281 203.707031 199.835938 209.246094 205.609375 L 246.785156 205.609375 C 248.535156 199.878906 249.476562 193.792969 249.476562 187.488281 C 249.480469 153.261719 221.726562 125.511719 187.496094 125.511719 C 153.261719 125.511719 125.511719 153.261719 125.511719 187.496094 C 125.511719 193.796875 126.453125 199.882812 128.203125 205.617188 Z M 183.871094 179.316406 C 166.429688 178.554688 158.359375 168.851562 159.648438 150.203125 C 175.378906 157.058594 187.308594 161.429688 185.125 176.214844 C 182.988281 169.015625 179.386719 162.8125 172.296875 159.75 C 178.050781 164.820312 182.191406 171.308594 183.871094 179.316406 Z M 183.871094 179.316406 " fill-opacity="1" fill-rule="evenodd"/></g><g clip-path="url(#a43fc00ae8)"><path fill="#1e3148" d="M 187.496094 232.851562 C 186.71875 232.703125 185.945312 232.53125 185.175781 232.332031 C 184.363281 232.128906 183.546875 231.898438 182.71875 231.636719 C 179.988281 230.777344 179.304688 229.492188 179.734375 228.191406 C 181.8125 221.925781 191.886719 223.609375 196.410156 223.59375 C 207.898438 223.539062 212.828125 222.039062 211.203125 217.078125 C 203.679688 214.371094 195.773438 213.15625 187.496094 213.460938 C 186.734375 213.488281 185.972656 213.527344 185.203125 213.585938 C 166.492188 214.980469 153.296875 228.707031 140.019531 227.351562 C 150.921875 240.324219 167.046875 248.765625 185.15625 249.4375 C 185.933594 249.464844 186.714844 249.480469 187.492188 249.480469 C 208.675781 249.480469 227.371094 238.855469 238.550781 222.644531 C 231.113281 213.925781 214.558594 238.128906 187.496094 232.851562 " fill-opacity="1" fill-rule="evenodd"/></g><g clip-path="url(#6cb09d2d26)"><path fill="#1e3148" d="M 271.539062 191.953125 C 271.539062 192.246094 271.507812 192.535156 271.453125 192.820312 C 271.394531 193.109375 271.3125 193.386719 271.199219 193.65625 C 271.085938 193.925781 270.949219 194.183594 270.789062 194.425781 C 270.625 194.671875 270.441406 194.894531 270.234375 195.101562 C 270.027344 195.308594 269.800781 195.492188 269.558594 195.65625 C 269.316406 195.816406 269.058594 195.957031 268.789062 196.066406 C 268.519531 196.179688 268.242188 196.261719 267.953125 196.320312 C 267.667969 196.378906 267.378906 196.40625 267.085938 196.40625 C 266.792969 196.40625 266.503906 196.378906 266.214844 196.320312 C 265.929688 196.261719 265.652344 196.179688 265.378906 196.066406 C 265.109375 195.957031 264.855469 195.816406 264.609375 195.65625 C 264.367188 195.492188 264.144531 195.308594 263.9375 195.101562 C 263.730469 194.894531 263.542969 194.671875 263.382812 194.425781 C 263.21875 194.183594 263.082031 193.925781 262.96875 193.65625 C 262.859375 193.386719 262.773438 193.109375 262.71875 192.820312 C 262.660156 192.535156 262.632812 192.246094 262.632812 191.953125 C 262.632812 191.660156 262.660156 191.371094 262.71875 191.085938 C 262.773438 190.796875 262.859375 190.519531 262.96875 190.25 C 263.082031 189.980469 263.21875 189.722656 263.382812 189.480469 C 263.542969 189.234375 263.730469 189.011719 263.9375 188.804688 C 264.144531 188.597656 264.367188 188.414062 264.609375 188.25 C 264.855469 188.089844 265.109375 187.949219 265.378906 187.839844 C 265.652344 187.726562 265.929688 187.644531 266.214844 187.585938 C 266.503906 187.527344 266.792969 187.5 267.085938 187.5 C 267.378906 187.5 267.667969 187.527344 267.953125 187.585938 C 268.242188 187.644531 268.519531 187.726562 268.789062 187.839844 C 269.058594 187.949219 269.316406 188.089844 269.558594 188.25 C 269.800781 188.414062 270.027344 188.597656 270.234375 188.804688 C 270.441406 189.011719 270.625 189.234375 270.789062 189.480469 C 270.949219 189.722656 271.085938 189.980469 271.199219 190.25 C 271.3125 190.519531 271.394531 190.796875 271.453125 191.085938 C 271.507812 191.371094 271.539062 191.660156 271.539062 191.953125 Z M 271.539062 191.953125 " fill-opacity="1" fill-rule="nonzero"/></g><g clip-path="url(#0032173e16)"><path fill="#1e3148" d="M 112.359375 191.953125 C 112.359375 192.246094 112.332031 192.535156 112.273438 192.820312 C 112.21875 193.109375 112.132812 193.386719 112.023438 193.65625 C 111.910156 193.925781 111.773438 194.183594 111.609375 194.425781 C 111.449219 194.671875 111.261719 194.894531 111.054688 195.101562 C 110.847656 195.308594 110.625 195.492188 110.382812 195.65625 C 110.136719 195.816406 109.882812 195.957031 109.613281 196.066406 C 109.339844 196.179688 109.0625 196.261719 108.777344 196.320312 C 108.488281 196.378906 108.199219 196.40625 107.90625 196.40625 C 107.613281 196.40625 107.324219 196.378906 107.039062 196.320312 C 106.75 196.261719 106.472656 196.179688 106.203125 196.066406 C 105.933594 195.957031 105.675781 195.816406 105.433594 195.65625 C 105.191406 195.492188 104.964844 195.308594 104.757812 195.101562 C 104.550781 194.894531 104.367188 194.671875 104.203125 194.425781 C 104.042969 194.183594 103.90625 193.925781 103.792969 193.65625 C 103.679688 193.386719 103.597656 193.109375 103.539062 192.820312 C 103.484375 192.535156 103.453125 192.246094 103.453125 191.953125 C 103.453125 191.660156 103.484375 191.371094 103.539062 191.085938 C 103.597656 190.796875 103.679688 190.519531 103.792969 190.25 C 103.90625 189.980469 104.042969 189.722656 104.203125 189.480469 C 104.367188 189.234375 104.550781 189.011719 104.757812 188.804688 C 104.964844 188.597656 105.191406 188.414062 105.433594 188.25 C 105.675781 188.089844 105.933594 187.949219 106.203125 187.839844 C 106.472656 187.726562 106.75 187.644531 107.039062 187.585938 C 107.324219 187.527344 107.613281 187.5 107.90625 187.5 C 108.199219 187.5 108.488281 187.527344 108.777344 187.585938 C 109.0625 187.644531 109.339844 187.726562 109.613281 187.839844 C 109.882812 187.949219 110.136719 188.089844 110.382812 188.25 C 110.625 188.414062 110.847656 188.597656 111.054688 188.804688 C 111.261719 189.011719 111.449219 189.234375 111.609375 189.480469 C 111.773438 189.722656 111.910156 189.980469 112.023438 190.25 C 112.132812 190.519531 112.21875 190.796875 112.273438 191.085938 C 112.332031 191.371094 112.359375 191.660156 112.359375 191.953125 Z M 112.359375 191.953125 " fill-opacity="1" fill-rule="nonzero"/></g><g transform="matrix(1, 0, 0, 1, 100, 209)"><g clip-path="url(#a9a94b9468)"><g fill="#1e3148" fill-opacity="1"><g transform="translate(6.214744, 9.861869)"><g><path d="M 13.3125 -0.5625 L 9.734375 1.171875 L 12.75 7.4375 L 10.234375 8.640625 L 7.21875 2.375 L 2.28125 4.75 L 0.765625 1.609375 L 14.328125 -4.921875 L 19.265625 5.328125 L 16.734375 6.546875 Z M 13.3125 -0.5625 "/></g></g></g><g fill="#1e3148" fill-opacity="1"><g transform="translate(14.839998, 26.748188)"><g><path d="M 9.859375 7.046875 L 5.46875 1.625 L 2.125 2.625 L -0.125 -0.140625 L 15.796875 -4.421875 L 17.953125 -1.75 L 10.5 12.953125 L 8.203125 10.109375 Z M 11.21875 4.546875 L 14.203125 -0.953125 L 8.21875 0.84375 Z M 11.21875 4.546875 "/></g></g></g><g fill="#1e3148" fill-opacity="1"><g transform="translate(29.080678, 43.535924)"><g><path d="M 12.640625 8.921875 L 17.828125 1.53125 L 9.921875 5.046875 L 8.640625 4.15625 L 9.21875 -4.3125 L 4.125 2.90625 L 1.453125 1.03125 L 10.125 -11.265625 L 12.484375 -9.609375 L 11.703125 1.296875 L 21.609375 -3.171875 L 23.9375 -1.53125 L 15.3125 10.796875 Z M 12.640625 8.921875 "/></g></g></g><g fill="#1e3148" fill-opacity="1"><g transform="translate(50.684848, 57.20785)"><g><path d="M 7.46875 -13.1875 L 10.6875 -11.84375 L 4.859375 2.03125 L 1.640625 0.6875 Z M 7.46875 -13.1875 "/></g></g></g><g fill="#1e3148" fill-opacity="1"><g transform="translate(61.662561, 61.649833)"><g><path d="M 5.125 -14.25 L 8.515625 -13.46875 L 5.765625 -1.578125 L 13.125 0.125 L 12.484375 2.890625 L 1.734375 0.40625 Z M 5.125 -14.25 "/></g></g></g><g fill="#1e3148" fill-opacity="1"><g transform="translate(79.379803, 65.273999)"><g><path d="M 9.0625 -5.21875 L 9 0.109375 L 5.515625 0.0625 L 5.578125 -5.3125 L -0.125 -15.046875 L 3.5625 -15.015625 L 7.5 -8.28125 L 11.609375 -14.921875 L 15.015625 -14.875 Z M 9.0625 -5.21875 "/></g></g></g><g fill="#1e3148" fill-opacity="1"><g transform="translate(98.677469, 64.714791)"><g/></g></g><g fill="#1e3148" fill-opacity="1"><g transform="translate(109.392995, 62.881775)"><g><path d="M 1.015625 -13.296875 L 2.296875 -9.515625 L 8.875 -11.78125 L 9.78125 -9.15625 L 3.203125 -6.890625 L 4.984375 -1.703125 L 1.6875 -0.578125 L -3.1875 -14.8125 L 7.5625 -18.5 L 8.46875 -15.859375 Z M 1.015625 -13.296875 "/></g></g></g><g fill="#1e3148" fill-opacity="1"><g transform="translate(127.178121, 56.304264)"><g><path d="M 8.15625 -8.953125 L 2.25 -5.234375 L 2.859375 -1.796875 L -0.15625 0.09375 L -2.515625 -16.203125 L 0.390625 -18.03125 L 14.09375 -8.90625 L 11 -6.953125 Z M 5.828125 -10.609375 L 0.734375 -14.203125 L 1.796875 -8.0625 Z M 5.828125 -10.609375 "/></g></g></g><g fill="#1e3148" fill-opacity="1"><g transform="translate(145.198819, 44.101764)"><g><path d="M 7.84375 -8.21875 L 2.8125 -9.015625 L 2.6875 -8.890625 L 0.609375 -6.703125 L 3.640625 -3.8125 L 1.234375 -1.296875 L -9.65625 -11.6875 L -5.171875 -16.390625 C -4.242188 -17.359375 -3.28125 -18.039062 -2.28125 -18.4375 C -1.28125 -18.832031 -0.304688 -18.941406 0.640625 -18.765625 C 1.597656 -18.597656 2.484375 -18.125 3.296875 -17.34375 C 4.109375 -16.570312 4.617188 -15.710938 4.828125 -14.765625 C 5.046875 -13.816406 4.96875 -12.832031 4.59375 -11.8125 L 10.421875 -10.9375 Z M 0.859375 -14.78125 C 0.253906 -15.363281 -0.394531 -15.613281 -1.09375 -15.53125 C -1.800781 -15.457031 -2.519531 -15.039062 -3.25 -14.28125 L -5.1875 -12.234375 L -1.40625 -8.625 L 0.53125 -10.671875 C 1.257812 -11.429688 1.644531 -12.164062 1.6875 -12.875 C 1.738281 -13.582031 1.460938 -14.21875 0.859375 -14.78125 Z M 0.859375 -14.78125 "/></g></g></g><g fill="#1e3148" fill-opacity="1"><g transform="translate(159.597679, 28.375174)"><g><path d="M 7.28125 -13.640625 L -0.6875 -17.875 L 3.78125 -10.46875 L 3.046875 -9.09375 L -5.40625 -8.609375 L 2.375 -4.453125 L 0.84375 -1.578125 L -12.421875 -8.671875 L -11.078125 -11.203125 L -0.15625 -11.765625 L -5.8125 -21.0625 L -4.453125 -23.578125 L 8.828125 -16.53125 Z M 7.28125 -13.640625 "/></g></g></g></g></g><g transform="matrix(1, 0, 0, 1, 98, 92)"><g clip-path="url(#4e7f677eb8)"><g fill="#1e3148" fill-opacity="1"><g transform="translate(19.066916, 72.044547)"><g><path d="M 1.90625 -11.96875 L -0.984375 -5.609375 L 1.390625 -3.078125 L -0.078125 0.171875 L -11 -12.171875 L -9.578125 -15.296875 L 6.90625 -15.171875 L 5.390625 -11.84375 Z M -0.9375 -12.0625 L -7.1875 -12.28125 L -2.921875 -7.734375 Z M -0.9375 -12.0625 "/></g></g></g><g fill="#1e3148" fill-opacity="1"><g transform="translate(27.189831, 55.270651)"><g><path d="M -10.859375 -10.578125 L -8.734375 -13.34375 L 0.953125 -5.90625 L 5.5625 -11.890625 L 7.8125 -10.15625 L 1.078125 -1.40625 Z M -10.859375 -10.578125 "/></g></g></g><g fill="#1e3148" fill-opacity="1"><g transform="translate(37.008102, 43.263501)"><g><path d="M -8.890625 -12.25 L -6.328125 -14.625 L 3.875 -3.578125 L 1.3125 -1.203125 Z M -8.890625 -12.25 "/></g></g></g><g fill="#1e3148" fill-opacity="1"><g transform="translate(43.886387, 36.671872)"><g><path d="M 7.765625 -4.546875 C 6.460938 -3.734375 5.109375 -3.28125 3.703125 -3.1875 C 2.296875 -3.09375 0.984375 -3.359375 -0.234375 -3.984375 C -1.460938 -4.617188 -2.472656 -5.566406 -3.265625 -6.828125 C -4.054688 -8.085938 -4.460938 -9.40625 -4.484375 -10.78125 C -4.515625 -12.164062 -4.179688 -13.46875 -3.484375 -14.6875 C -2.785156 -15.90625 -1.785156 -16.921875 -0.484375 -17.734375 C 0.617188 -18.429688 1.738281 -18.863281 2.875 -19.03125 C 4.019531 -19.207031 5.117188 -19.117188 6.171875 -18.765625 L 5.375 -15.828125 C 3.90625 -16.285156 2.53125 -16.113281 1.25 -15.3125 C 0.457031 -14.820312 -0.132812 -14.210938 -0.53125 -13.484375 C -0.9375 -12.753906 -1.117188 -11.96875 -1.078125 -11.125 C -1.046875 -10.289062 -0.78125 -9.476562 -0.28125 -8.6875 C 0.207031 -7.894531 0.816406 -7.300781 1.546875 -6.90625 C 2.285156 -6.507812 3.070312 -6.328125 3.90625 -6.359375 C 4.738281 -6.398438 5.550781 -6.664062 6.34375 -7.15625 C 7.625 -7.957031 8.378906 -9.125 8.609375 -10.65625 L 11.59375 -10.09375 C 11.445312 -8.988281 11.046875 -7.957031 10.390625 -7 C 9.742188 -6.050781 8.867188 -5.234375 7.765625 -4.546875 Z M 7.765625 -4.546875 "/></g></g></g><g fill="#1e3148" fill-opacity="1"><g transform="translate(59.614275, 27.584616)"><g><path d="M -3.8125 -14.65625 L -0.5625 -15.921875 L 4.90625 -1.90625 L 1.65625 -0.640625 Z M -3.8125 -14.65625 "/></g></g></g><g fill="#1e3148" fill-opacity="1"><g transform="translate(68.391757, 23.931215)"><g><path d="M 10.921875 -5.265625 L 4.046875 -4.015625 L 3.3125 -0.609375 L -0.1875 0.03125 L 3.703125 -15.96875 L 7.09375 -16.578125 L 16.40625 -2.984375 L 12.8125 -2.328125 Z M 9.375 -7.671875 L 5.984375 -12.90625 L 4.6875 -6.8125 Z M 9.375 -7.671875 "/></g></g></g><g fill="#1e3148" fill-opacity="1"><g transform="translate(87.077785, 21.244551)"><g/></g></g><g fill="#1e3148" fill-opacity="1"><g transform="translate(95.651155, 21.030872)"><g><path d="M 13.203125 -5.34375 L 16.3125 -4.734375 L 15.15625 1.25 C 14.25 1.695312 13.234375 1.984375 12.109375 2.109375 C 10.992188 2.234375 9.898438 2.191406 8.828125 1.984375 C 7.296875 1.691406 5.984375 1.097656 4.890625 0.203125 C 3.796875 -0.691406 3.007812 -1.785156 2.53125 -3.078125 C 2.0625 -4.378906 1.96875 -5.757812 2.25 -7.21875 C 2.539062 -8.6875 3.144531 -9.929688 4.0625 -10.953125 C 4.988281 -11.972656 6.128906 -12.691406 7.484375 -13.109375 C 8.847656 -13.523438 10.300781 -13.582031 11.84375 -13.28125 C 13.144531 -13.03125 14.28125 -12.585938 15.25 -11.953125 C 16.21875 -11.316406 16.984375 -10.515625 17.546875 -9.546875 L 14.953125 -7.953125 C 14.109375 -9.253906 12.941406 -10.050781 11.453125 -10.34375 C 10.515625 -10.53125 9.640625 -10.492188 8.828125 -10.234375 C 8.015625 -9.984375 7.335938 -9.539062 6.796875 -8.90625 C 6.253906 -8.269531 5.890625 -7.484375 5.703125 -6.546875 C 5.535156 -5.640625 5.582031 -4.785156 5.84375 -3.984375 C 6.113281 -3.191406 6.570312 -2.523438 7.21875 -1.984375 C 7.875 -1.441406 8.660156 -1.082031 9.578125 -0.90625 C 10.566406 -0.707031 11.5 -0.75 12.375 -1.03125 Z M 13.203125 -5.34375 "/></g></g></g><g fill="#1e3148" fill-opacity="1"><g transform="translate(113.904886, 24.877779)"><g><path d="M 10.28125 4.8125 L 9.453125 -0.203125 L 9.296875 -0.28125 L 6.546875 -1.5625 L 4.765625 2.234375 L 1.609375 0.75 L 7.984375 -12.875 L 13.890625 -10.109375 C 15.097656 -9.546875 16.050781 -8.851562 16.75 -8.03125 C 17.445312 -7.207031 17.863281 -6.316406 18 -5.359375 C 18.144531 -4.398438 17.976562 -3.410156 17.5 -2.390625 C 17.019531 -1.378906 16.363281 -0.617188 15.53125 -0.109375 C 14.707031 0.390625 13.753906 0.625 12.671875 0.59375 L 13.6875 6.40625 Z M 14.296875 -3.890625 C 14.648438 -4.660156 14.675781 -5.363281 14.375 -6 C 14.082031 -6.632812 13.457031 -7.171875 12.5 -7.609375 L 9.9375 -8.8125 L 7.71875 -4.078125 L 10.28125 -2.875 C 11.238281 -2.4375 12.054688 -2.3125 12.734375 -2.5 C 13.421875 -2.6875 13.941406 -3.148438 14.296875 -3.890625 Z M 14.296875 -3.890625 "/></g></g></g><g fill="#1e3148" fill-opacity="1"><g transform="translate(130.022868, 32.788009)"><g><path d="M 12.25 6.15625 L 10.515625 8.34375 L 1.390625 1.109375 L 10.75 -10.671875 L 19.671875 -3.609375 L 17.921875 -1.421875 L 11.71875 -6.328125 L 9.6875 -3.765625 L 15.15625 0.5625 L 13.484375 2.671875 L 8.015625 -1.65625 L 5.84375 1.078125 Z M 12.25 6.15625 "/></g></g></g><g fill="#1e3148" fill-opacity="1"><g transform="translate(142.897942, 43.323721)"><g><path d="M 10.578125 8.71875 L 8.390625 10.46875 L 1.109375 1.390625 L 12.859375 -8.015625 L 19.96875 0.859375 L 17.78125 2.609375 L 12.84375 -3.5625 L 10.296875 -1.515625 L 14.65625 3.921875 L 12.546875 5.609375 L 8.1875 0.171875 L 5.46875 2.34375 Z M 10.578125 8.71875 "/></g></g></g><g fill="#1e3148" fill-opacity="1"><g transform="translate(153.181701, 56.293427)"><g><path d="M 20.1875 7.828125 L 6.53125 14.140625 L 5.328125 11.546875 L 10.46875 0.90625 L 2.1875 4.734375 L 0.75 1.609375 L 14.40625 -4.703125 L 15.609375 -2.078125 L 10.453125 8.546875 L 18.75 4.703125 Z M 20.1875 7.828125 "/></g></g></g></g></g></svg>